<mxfile host="2a4b70cc-17d5-4d53-91d6-5163c244e35f" modified="2020-09-23T16:45:39.758Z" agent="5.0 (Macintosh; Intel Mac OS X 10_15_6) AppleWebKit/537.36 (KHTML, like Gecko) Code/1.49.1 Chrome/83.0.4103.122 Electron/9.2.1 Safari/537.36" etag="OjtOEYHQ8WrLTdYgKcBP" version="13.1.3">
    <diagram id="6hGFLwfOUW9BJ-s0fimq" name="Page-1">
        <mxGraphModel dx="1673" dy="572" grid="1" gridSize="10" guides="1" tooltips="1" connect="1" arrows="1" fold="1" page="1" pageScale="1" pageWidth="827" pageHeight="1169" math="0" shadow="0">
            <root>
                <mxCell id="0"/>
                <mxCell id="1" parent="0"/>
                <mxCell id="7" value="Business Tier" style="rounded=0;whiteSpace=wrap;html=1;align=left;verticalAlign=top;" vertex="1" parent="1">
                    <mxGeometry x="70" y="340" width="650" height="160" as="geometry"/>
                </mxCell>
                <mxCell id="2" value="&lt;div&gt;&lt;span&gt;UI Tier&lt;/span&gt;&lt;/div&gt;" style="rounded=0;whiteSpace=wrap;html=1;align=left;verticalAlign=top;" vertex="1" parent="1">
                    <mxGeometry x="70" y="130" width="650" height="160" as="geometry"/>
                </mxCell>
                <mxCell id="13" style="edgeStyle=orthogonalEdgeStyle;rounded=0;orthogonalLoop=1;jettySize=auto;html=1;" edge="1" parent="1" source="3" target="8">
                    <mxGeometry relative="1" as="geometry"/>
                </mxCell>
                <mxCell id="3" value="calc-web-ui" style="html=1;dropTarget=0;" vertex="1" parent="1">
                    <mxGeometry x="110" y="165" width="180" height="90" as="geometry"/>
                </mxCell>
                <mxCell id="4" value="" style="shape=component;jettyWidth=8;jettyHeight=4;" vertex="1" parent="3">
                    <mxGeometry x="1" width="20" height="20" relative="1" as="geometry">
                        <mxPoint x="-27" y="7" as="offset"/>
                    </mxGeometry>
                </mxCell>
                <mxCell id="14" style="edgeStyle=orthogonalEdgeStyle;rounded=0;orthogonalLoop=1;jettySize=auto;html=1;exitX=0.5;exitY=1;exitDx=0;exitDy=0;" edge="1" parent="1" source="5">
                    <mxGeometry relative="1" as="geometry">
                        <mxPoint x="200" y="390" as="targetPoint"/>
                    </mxGeometry>
                </mxCell>
                <mxCell id="5" value="calc-ios" style="html=1;dropTarget=0;" vertex="1" parent="1">
                    <mxGeometry x="324" y="165" width="180" height="90" as="geometry"/>
                </mxCell>
                <mxCell id="6" value="" style="shape=component;jettyWidth=8;jettyHeight=4;" vertex="1" parent="5">
                    <mxGeometry x="1" width="20" height="20" relative="1" as="geometry">
                        <mxPoint x="-27" y="7" as="offset"/>
                    </mxGeometry>
                </mxCell>
                <mxCell id="12" value="" style="edgeStyle=orthogonalEdgeStyle;rounded=0;orthogonalLoop=1;jettySize=auto;html=1;" edge="1" parent="1" source="8" target="10">
                    <mxGeometry relative="1" as="geometry"/>
                </mxCell>
                <mxCell id="8" value="calc-service" style="html=1;dropTarget=0;" vertex="1" parent="1">
                    <mxGeometry x="110" y="380" width="180" height="90" as="geometry"/>
                </mxCell>
                <mxCell id="9" value="" style="shape=component;jettyWidth=8;jettyHeight=4;" vertex="1" parent="8">
                    <mxGeometry x="1" width="20" height="20" relative="1" as="geometry">
                        <mxPoint x="-27" y="7" as="offset"/>
                    </mxGeometry>
                </mxCell>
                <mxCell id="10" value="calc-api" style="html=1;dropTarget=0;" vertex="1" parent="1">
                    <mxGeometry x="370" y="380" width="180" height="90" as="geometry"/>
                </mxCell>
                <mxCell id="11" value="" style="shape=component;jettyWidth=8;jettyHeight=4;" vertex="1" parent="10">
                    <mxGeometry x="1" width="20" height="20" relative="1" as="geometry">
                        <mxPoint x="-27" y="7" as="offset"/>
                    </mxGeometry>
                </mxCell>
            </root>
        </mxGraphModel>
    </diagram>
</mxfile>